# xmcd CD database file
#
# Track frame offsets:
#	150
#	16477
#	37232
#	52459
#	71327
#	86658
#	100040
#	111660
#	130131
#	147934
#	160838
#	172675
#	182057
#	198864
#	215652
#	231621
#	244949
#	261529
#
# Disc length: 3600 seconds
#
# Revision: 2
# Processed by: cddbd v1.4PL0 Copyright (c) Steve Scherf et al.
# Submitted via: jetAudio 5
#
DISCID=150e0e12
DTITLE=Mic Conway's National Junk Band - Tin Can Alley
DYEAR=1900
DGENRE=
TTITLE0=hit me with your rythm stick
TTITLE1=juncle of love
TTITLE2=brain of fog
TTITLE3=genie in the lamp
TTITLE4=the unmusical
TTITLE5=cliché blues
TTITLE6=the galaxy song
TTITLE7=sending you my dream
TTITLE8=give me one reason
TTITLE9=bad cop, bad cop
TTITLE10=home truths
TTITLE11=bonza girl
TTITLE12=take your tomorrow
TTITLE13=illusions
TTITLE14=the story of cowboy jesus
TTITLE15=song mechanics (in a relaxed manner)
TTITLE16=home
TTITLE17=bonus track
EXTD=
EXTT0=
EXTT1=
EXTT2=
EXTT3=
EXTT4=
EXTT5=
EXTT6=
EXTT7=
EXTT8=
EXTT9=
EXTT10=
EXTT11=
EXTT12=
EXTT13=
EXTT14=
EXTT15=
EXTT16=
EXTT17=
PLAYORDER=
